<?xml version="1.0" encoding="UTF-8"?>
<svg version="1.1" xmlns="http://www.w3.org/2000/svg" width="512" height="512">
<path d="M0 0 C1.03656738 0.0098291 2.07313477 0.0196582 3.14111328 0.02978516 C15.89847582 0.23270441 28.60649855 1.20263246 41.3125 2.3125 C42.63967041 2.42464844 42.63967041 2.42464844 43.99365234 2.5390625 C55.64512796 3.55284648 66.93637403 5.61772644 78.3125 8.3125 C79.0977002 8.49683594 79.88290039 8.68117188 80.69189453 8.87109375 C92.91978124 11.78788351 104.63967242 15.65709872 116.3125 20.3125 C117.00972168 20.58819824 117.70694336 20.86389648 118.42529297 21.14794922 C135.62811381 28.03813817 150.90568581 37.71552545 165.3125 49.3125 C168.79965839 48.3317367 170.94053792 46.82318112 173.5 44.375 C212.5275416 9.09586635 274.57394474 0.54644957 324.82952881 0.08334351 C326.83453294 0.06291236 328.83940039 0.03023927 330.84423828 -0.00268555 C342.92247693 -0.04398 342.92247693 -0.04398 348.3125 3.3125 C351.23219258 6.43280844 351.67590511 8.50819344 351.60546875 12.734375 C351.59580078 13.75917969 351.58613281 14.78398437 351.57617188 15.83984375 C351.55103516 16.90332031 351.52589844 17.96679688 351.5 19.0625 C351.48646484 20.14144531 351.47292969 21.22039063 351.45898438 22.33203125 C351.42366584 24.9926942 351.37434199 27.65234296 351.3125 30.3125 C352.09898926 30.29155273 352.88547852 30.27060547 353.69580078 30.24902344 C357.27623598 30.16562247 360.85646642 30.11376224 364.4375 30.0625 C366.29375 30.01222656 366.29375 30.01222656 368.1875 29.9609375 C379.65531801 29.83762763 379.65531801 29.83762763 384.3125 34.3125 C385.69446135 37.07642271 385.45315597 39.31927542 385.47071838 42.4138031 C385.48540161 44.36935371 385.48540161 44.36935371 385.50038147 46.3644104 C385.50628751 47.81903039 385.51209783 49.27365077 385.51782227 50.72827148 C385.52740145 52.25483973 385.53741155 53.78140533 385.54782104 55.30796814 C385.57497289 59.47587608 385.59595253 63.64379532 385.61582303 67.8117435 C385.63778024 72.21192322 385.66515679 76.6120694 385.69187927 81.01222229 C385.736258 88.44652777 385.77696838 95.88084595 385.81518555 103.31518555 C385.85400546 110.86500843 385.89544304 118.41480944 385.94018555 125.96459961 C385.94562209 126.88285566 385.95105863 127.80111171 385.95665991 128.74719369 C385.96760753 130.59403916 385.97856161 132.44088459 385.98952222 134.28772998 C386.08400358 150.23317532 386.16612946 166.17862282 386.23370481 182.12420535 C386.27268571 191.27669702 386.32450511 200.42866767 386.41338825 209.58084393 C386.45222001 213.70368178 386.48057983 217.82654131 386.50620842 221.94948006 C386.52004177 223.72365346 386.53908972 225.49779576 386.56396675 227.27184868 C386.59641718 229.60071643 386.61101378 231.92900178 386.62084961 234.25805664 C386.64023842 236.11534142 386.64023842 236.11534142 386.66001892 238.01014709 C386.17410697 242.62760138 384.74925432 246.02683839 381.26953125 249.140625 C376.8918362 250.87551075 372.67235087 250.92555741 368 251.0625 C367.08798828 251.10503906 366.17597656 251.14757812 365.23632812 251.19140625 C360.54391302 251.37304812 356.19321528 251.17735903 351.52790833 250.55575562 C347.47717071 250.11097771 343.41529305 250.07364673 339.34375 249.99609375 C337.96237854 249.9649221 337.96237854 249.9649221 336.55310059 249.93312073 C333.63963575 249.86824882 330.72608839 249.80903318 327.8125 249.75 C325.82551263 249.70675533 323.83853331 249.66313924 321.8515625 249.61914062 C317.0052908 249.51263228 312.1589369 249.41119316 307.3125 249.3125 C306.9825 249.9725 306.6525 250.6325 306.3125 251.3125 C306.3125 250.6525 306.3125 249.9925 306.3125 249.3125 C305.44757935 249.55456177 305.44757935 249.55456177 304.56518555 249.80151367 C302.38931689 250.2950753 300.49486791 250.45220032 298.26953125 250.48828125 C257.88626676 251.52993701 216.74274777 258.71957417 179.1875 273.875 C167.88828187 278.18638441 160.23998775 276.6339203 149.34301758 272.37084961 C130.79416278 265.11727773 111.57815755 260.34725679 92.00878906 256.81494141 C89.3942281 256.32772967 86.79942358 255.77680094 84.19921875 255.21875 C79.36512811 254.24318543 74.60809227 253.8839962 69.6875 253.6875 C68.46740234 253.62949219 68.46740234 253.62949219 67.22265625 253.5703125 C65.2529105 253.47761858 63.2827383 253.39405671 61.3125 253.3125 C61.3125 252.6525 61.3125 251.9925 61.3125 251.3125 C44.34530741 250.58224913 27.41631172 250.23422881 10.43359375 250.35546875 C8.72661405 250.36592726 7.01963365 250.37627231 5.31265259 250.38650513 C-1.66257102 250.43076571 -8.63762258 250.48029422 -15.61254883 250.55932617 C-19.96007953 250.6078362 -24.30736845 250.6368106 -28.6551342 250.65307045 C-30.28860465 250.66290803 -31.92204944 250.68002587 -33.55536079 250.70485497 C-35.81659524 250.73863272 -38.07667924 250.74748511 -40.33813477 250.75073242 C-41.61697037 250.76263107 -42.89580597 250.77452972 -44.21339417 250.78678894 C-48.58721587 250.18966975 -51.5611083 248.4388917 -54.6875 245.3125 C-54.79866216 242.6180958 -54.84420684 239.94885507 -54.84812927 237.253479 C-54.85321709 236.39860641 -54.85830491 235.54373382 -54.86354691 234.662956 C-54.87934256 231.77563123 -54.88781511 228.88833161 -54.89624023 226.00097656 C-54.90577295 223.94000079 -54.91566384 221.87902665 -54.92588806 219.8180542 C-54.95733994 213.02976394 -54.977547 206.24146117 -54.99609375 199.453125 C-54.99939107 198.29973224 -55.00268839 197.14633947 -55.00608563 195.95799541 C-55.03686884 185.08788469 -55.06358746 174.2177713 -55.08050442 163.34762955 C-55.10242437 149.42384817 -55.14441401 135.50045182 -55.21394199 121.57682443 C-55.2611234 111.79761592 -55.28543017 102.01851151 -55.2927013 92.23919272 C-55.29766645 86.3931858 -55.31282934 80.54761228 -55.3524456 74.70172882 C-55.38922155 69.20230771 -55.39775119 63.70356914 -55.38443947 58.20404816 C-55.38449357 56.18397293 -55.3948509 54.16386815 -55.4161911 52.14390564 C-55.44375034 49.38825822 -55.43441971 46.63512108 -55.41575623 43.87945557 C-55.43255115 43.07760275 -55.44934608 42.27574994 -55.46664995 41.44959855 C-55.41659704 38.49793011 -55.28285685 36.0710366 -53.41738904 33.69426775 C-49.65728346 30.38968 -46.90376942 29.71120942 -41.9765625 29.82421875 C-40.73261719 29.84033203 -39.48867188 29.85644531 -38.20703125 29.87304688 C-36.92183594 29.91494141 -35.63664062 29.95683594 -34.3125 30 C-32.34990234 30.03383789 -32.34990234 30.03383789 -30.34765625 30.06835938 C-27.12643113 30.12714086 -23.9075568 30.20927269 -20.6875 30.3125 C-20.9354834 28.94847046 -20.9354834 28.94847046 -21.18847656 27.55688477 C-21.77654189 23.73359702 -21.67416996 20.09050806 -21.4375 16.25 C-21.39689453 15.20875977 -21.39689453 15.20875977 -21.35546875 14.14648438 C-21.09732418 9.7621903 -20.58383133 6.66961132 -17.6875 3.3125 C-11.90409635 -0.12162972 -6.60743231 -0.11874858 0 0 Z M2.3125 19.3125 C2.24244414 41.65213845 2.1895286 63.99175881 2.15706348 86.33148479 C2.14158925 96.70401873 2.12048908 107.07648445 2.08618164 117.44897461 C2.05629634 126.48877994 2.03692904 135.52853588 2.03023452 144.56838924 C2.02632079 149.35570536 2.01711139 154.14288013 1.99530983 158.93015099 C1.97495844 163.43545779 1.96866348 167.94056491 1.97317696 172.44591331 C1.97235115 174.0999205 1.96637745 175.75393431 1.95488358 177.40790176 C1.93996026 179.66599418 1.94354539 181.92333244 1.95173645 184.18144226 C1.94897107 185.44522044 1.94620569 186.70899862 1.94335651 188.01107311 C2.34290861 191.58445875 3.17334167 193.45550745 5.3125 196.3125 C7.98501897 198.08652005 10.24857567 198.58792072 13.41796875 198.8046875 C14.22451904 198.86793213 15.03106934 198.93117676 15.86206055 198.99633789 C17.16784058 199.09096313 17.16784058 199.09096313 18.5 199.1875 C27.95755251 199.96942693 37.25486941 201.31247916 46.6081543 202.90380859 C52.12777279 203.8362586 57.59059894 204.60147007 63.17407227 205.02758789 C65.95421847 205.39799897 68.39722538 206.40860164 70.97265625 207.48828125 C75.21073388 208.98116001 79.64048739 209.70726711 84.04296875 210.56640625 C87.01562955 211.24475537 89.50865942 212.14180282 92.3125 213.3125 C93.66110862 213.77945334 95.01307981 214.23674176 96.3671875 214.6875 C115.090981 220.96871383 132.9847142 228.56839402 150.0859375 238.4765625 C152.83863687 240.39492528 152.83863687 240.39492528 154.3125 240.3125 C154.4059359 218.3813025 154.4764756 196.45013781 154.51974869 174.51878166 C154.54037507 164.33569562 154.56849719 154.15273324 154.61425781 143.96972656 C154.65412317 135.09435033 154.67993226 126.21906367 154.68885398 117.34360039 C154.69406923 112.64395125 154.7063286 107.94455833 154.73542023 103.2449913 C154.76258455 98.82089551 154.77094295 94.39716131 154.76493073 89.97299004 C154.76603051 88.35003252 154.77397847 86.72706283 154.7893219 85.10417747 C154.80926666 82.88564947 154.80442408 80.66848107 154.79351807 78.44992065 C154.79904882 76.58882062 154.79904882 76.58882062 154.80469131 74.6901226 C153.59633769 66.39789475 146.475141 61.42003488 140.16943359 56.64453125 C130.03273616 49.37319004 118.92962749 43.78815122 107.3125 39.3125 C106.24177246 38.89339355 106.24177246 38.89339355 105.14941406 38.46582031 C82.76761896 29.74329328 60.15862393 24.47478173 36.3125 21.625 C35.33023438 21.50560059 34.34796875 21.38620117 33.3359375 21.26318359 C26.3556406 20.48421312 19.38968616 20.09075304 12.375 19.77416992 C11.40498047 19.72924156 10.43496094 19.6843132 9.43554688 19.63802338 C7.06125372 19.52823608 4.68690842 19.41976056 2.3125 19.3125 Z M180.3125 66.3125 C175.37930306 73.71229541 177.17786893 84.65607881 177.19897461 93.27539062 C177.19925699 94.89231362 177.19909775 96.50923675 177.1985321 98.12615967 C177.19824612 102.49745868 177.20411064 106.86873005 177.21110606 111.24002266 C177.21737277 115.81508365 177.21794602 120.39014534 177.21913147 124.96520996 C177.22223502 133.62061203 177.23043522 142.27600142 177.24048096 150.93139791 C177.25167245 160.78870975 177.25716019 170.6460222 177.26217639 180.50333881 C177.27261866 200.77306628 177.29019916 221.04278234 177.3125 241.3125 C180.82775277 239.95526515 183.66510513 238.47660838 186.75 236.3125 C223.26271105 212.72420753 272.64882112 202.14577661 315.38964844 199.08325195 C319.76100865 198.71666323 322.85638601 198.08379141 326.3125 195.3125 C328.70206181 191.74456513 328.55915467 188.5176031 328.55300903 184.30169678 C328.55471788 183.59590807 328.55642673 182.89011937 328.55818737 182.16294312 C328.56148126 179.79830407 328.55048036 177.43394885 328.53955078 175.06933594 C328.53898664 173.37418627 328.53930327 171.67903611 328.54043579 169.98388672 C328.54101021 165.38092187 328.52924144 160.77806101 328.51528788 156.17512035 C328.50279541 151.36514499 328.50161119 146.55516731 328.49923706 141.74517822 C328.49301793 132.63630162 328.47660124 123.52747296 328.45653808 114.41861749 C328.43419257 104.04871665 328.42318904 93.67881355 328.41314721 83.30889463 C328.3922354 61.97673632 328.35705099 40.64462118 328.3125 19.3125 C278.34970196 19.3125 217.3247474 29.6713027 180.3125 66.3125 Z " fill="#000000" transform="translate(80.6875,10.6875)"/>
<path d="M0 0 C0.92466064 0.00491455 1.84932129 0.0098291 2.80200195 0.01489258 C9.45990386 0.12922907 15.42187619 0.73820362 21.625 3.3125 C22.4809375 3.66441406 23.336875 4.01632812 24.21875 4.37890625 C35.164162 9.37357468 42.76028287 17.24329713 47.50390625 28.375 C49.85259709 36.2587175 49.92255866 46.69452883 46.625 54.3125 C45.13361837 56.76772667 43.55813528 59.10766831 41.8671875 61.4296875 C40.44143419 63.21479125 40.44143419 63.21479125 40.625 65.3125 C42.58647874 66.70188077 44.58666576 68.0385411 46.625 69.3125 C46.625 72.62454667 46.12905351 74.70980118 43.98828125 77.26953125 C40.98666629 80.07675591 38.64883208 82.05654198 34.625 83.0625 C31.55065185 82.29391296 30.4422375 81.4519677 28 79.5625 C25.13067935 77.5832769 24.11709829 77.22675075 20.62109375 77.8359375 C18.54547673 78.55412646 16.48811925 79.32820191 14.45703125 80.1640625 C3.52297595 84.59801044 -11.50636903 83.39396901 -22.375 79.3125 C-26.23235252 77.57129826 -29.81124554 75.59217151 -33.375 73.3125 C-34.02210937 72.90644531 -34.66921875 72.50039063 -35.3359375 72.08203125 C-39.5920567 68.95253184 -42.11931633 64.82392005 -44.75 60.3125 C-45.09635498 59.71888672 -45.44270996 59.12527344 -45.79956055 58.51367188 C-50.0637814 50.79125236 -50.54975226 41.49488268 -48.9140625 32.88671875 C-45.4795775 21.51251254 -38.60770471 12.65212283 -28.4453125 6.5546875 C-19.04313704 1.60239661 -10.56340887 -0.06652142 0 0 Z M-22.375 27.3125 C-26.13272014 34.09044381 -27.69470712 40.29917474 -25.71484375 47.8203125 C-23.30560131 54.80815854 -19.94625607 59.00049933 -13.34375 62.33984375 C-6.57823486 64.99947561 1.58205385 65.75404227 8.484375 63.29296875 C9.54398438 62.80763672 9.54398438 62.80763672 10.625 62.3125 C9.84125 61.52875 9.0575 60.745 8.25 59.9375 C3.625 55.3125 3.625 55.3125 3.2734375 52.8984375 C3.625 50.3125 3.625 50.3125 5.1640625 48.4765625 C10.76186534 44.34634842 10.76186534 44.34634842 14.8125 44.1875 C17.95470424 45.44438169 20.07230917 47.11434956 22.625 49.3125 C23.285 49.3125 23.945 49.3125 24.625 49.3125 C26.6872776 42.20580238 27.1321693 36.97983953 23.625 30.3125 C19.71730416 24.19084646 14.63780268 20.88493705 7.76953125 18.73046875 C-3.64912454 16.50497482 -14.30269305 18.67700884 -22.375 27.3125 Z " fill="#010101" transform="translate(146.375,323.6875)"/>
<path d="M0 0 C0.495 0.99 0.495 0.99 1 2 C2.31647119 2.69937532 3.65022151 3.36729133 5 4 C6.87704639 5.87704639 6.15730509 9.08234691 6.17700195 11.58349609 C6.18357315 12.27132675 6.19014435 12.95915741 6.19691467 13.66783142 C6.21668938 15.95303443 6.22831904 18.23817163 6.23828125 20.5234375 C6.24235678 21.3020879 6.2464323 22.0807383 6.25063133 22.88298416 C6.27150929 27.0036925 6.28580382 31.12436735 6.29516602 35.24511719 C6.30623791 39.50820209 6.34064126 43.77076606 6.38033772 48.03366661 C6.40644436 51.30558259 6.41485247 54.57737332 6.41844749 57.84938431 C6.42332847 59.42111354 6.43498527 60.99283664 6.45348549 62.56446457 C6.47775359 64.76263812 6.4769356 66.95944924 6.4699707 69.15771484 C6.47583694 70.40934418 6.48170319 71.66097351 6.48774719 72.95053101 C6 76 6 76 4.17765808 77.90054321 C1.06746349 79.47081936 -1.53340319 79.43382776 -5 79.4375 C-6.216875 79.45683594 -7.43375 79.47617187 -8.6875 79.49609375 C-12 79 -12 79 -14.16894531 77.5402832 C-16.88282151 73.77523229 -16.60284956 70.39669262 -16.609375 65.859375 C-16.62591125 64.97719299 -16.64244751 64.09501099 -16.65948486 63.18609619 C-16.70799194 60.3739935 -16.72934155 57.56243168 -16.75 54.75 C-16.77815746 52.84111858 -16.80808457 50.93226239 -16.83984375 49.0234375 C-16.91375154 44.34900286 -16.96330955 39.67486894 -17 35 C-17.586604 35.98057373 -17.586604 35.98057373 -18.18505859 36.98095703 C-23.90680354 46.53361514 -23.90680354 46.53361514 -26.625 50.875 C-27.17414063 51.75929688 -27.72328125 52.64359375 -28.2890625 53.5546875 C-30.450402 56.64372523 -32.5944789 59.29723945 -36 61 C-43.03937622 61.57699805 -43.03937622 61.57699805 -46.40625 59.5546875 C-49.95223746 56.06210346 -52.21033511 52.10288218 -54.6875 47.8125 C-55.6452113 46.1705275 -56.60723836 44.5310622 -57.57421875 42.89453125 C-57.99276123 42.17112549 -58.41130371 41.44771973 -58.8425293 40.70239258 C-59.90266163 38.84524933 -59.90266163 38.84524933 -62 38 C-62.625 35.9375 -62.625 35.9375 -63 34 C-63.01458252 35.25659424 -63.02916504 36.51318848 -63.04418945 37.80786133 C-63.10211604 42.46537892 -63.17934911 47.12241016 -63.26245117 51.77954102 C-63.2957271 53.79606235 -63.32375068 55.81267742 -63.34643555 57.8293457 C-63.37993256 60.726481 -63.43224544 63.62275518 -63.48828125 66.51953125 C-63.49786613 67.87435356 -63.49786613 67.87435356 -63.50764465 69.25654602 C-63.52743881 70.09719101 -63.54723297 70.937836 -63.56762695 71.80395508 C-63.57873001 72.54341873 -63.58983307 73.28288239 -63.60127258 74.04475403 C-64.11686412 76.57306844 -64.94951273 77.46514804 -67 79 C-69.60442608 79.32555326 -71.90093877 79.46472826 -74.5 79.4375 C-75.17675781 79.45748047 -75.85351562 79.47746094 -76.55078125 79.49804688 C-81.47958798 79.49318612 -81.47958798 79.49318612 -83.6925354 77.39601135 C-85.44228012 74.18949378 -85.3810793 71.81577872 -85.38818359 68.16772461 C-85.39344055 67.48920944 -85.39869751 66.81069427 -85.40411377 66.11161804 C-85.41728844 63.87495725 -85.40858626 61.63901143 -85.3984375 59.40234375 C-85.40045874 57.84582889 -85.4033706 56.28931496 -85.40713501 54.73280334 C-85.41155471 51.47371386 -85.40513803 48.2148713 -85.39111328 44.95581055 C-85.37400714 40.77692267 -85.38387348 36.59861222 -85.40183067 32.41974545 C-85.41266609 29.20699199 -85.40922359 25.99437568 -85.4014473 22.78161812 C-85.39944534 21.24062596 -85.40190441 19.69962137 -85.40888596 18.15864372 C-85.41649832 16.00638658 -85.40490135 13.85506801 -85.38818359 11.70288086 C-85.38579681 10.47806503 -85.38341003 9.25324921 -85.38095093 7.99131775 C-85 5 -85 5 -83.66323853 3.14356995 C-79.89849899 0.55509997 -76.11084845 0.80250265 -71.6875 0.75 C-70.39199219 0.72421875 -69.09648438 0.6984375 -67.76171875 0.671875 C-63.55337234 1.03895818 -61.40331788 1.48471288 -58 4 C-56.80503996 6.1287626 -55.91804369 8.28004932 -55.02783203 10.55273438 C-53.3294547 14.59656676 -50.87134983 18.11729026 -48.4375 21.75 C-47.47718931 23.20267883 -46.51753609 24.65579253 -45.55859375 26.109375 C-45.11499512 26.77904297 -44.67139648 27.44871094 -44.21435547 28.13867188 C-42.74608485 30.38919363 -41.35615582 32.68037994 -40 35 C-39.56429687 34.29875 -39.12859375 33.5975 -38.6796875 32.875 C-35.88445046 28.42198168 -33.10361643 24.02848051 -29.875 19.875 C-27.76218146 17.15453707 -26.13101512 14.44050187 -24.5625 11.375 C-22.07193647 6.89043389 -19.78883355 3.18603568 -15 1 C-9.97992622 0.2228988 -5.07363026 0.01305954 0 0 Z " fill="#010101" transform="translate(95,425)"/>
<path d="M0 0 C2.41191766 3.00796628 3.97031928 6.11372765 5.359375 9.6953125 C5.64296875 10.31148438 5.9265625 10.92765625 6.21875 11.5625 C7.92900653 16.14218692 7.1360442 19.22992477 5.421875 23.7578125 C2.43604607 30.19320946 -1.13965207 34.98207043 -7.578125 38.1328125 C-8.25875 38.3184375 -8.939375 38.5040625 -9.640625 38.6953125 C-6.9542929 43.62441953 -4.01690781 48.0036116 -0.515625 52.3828125 C6.50260417 61.19140625 6.50260417 61.19140625 6.109375 65.3203125 C5.359375 67.6953125 5.359375 67.6953125 3.359375 69.6953125 C0.52135348 69.9479728 -2.17678279 70.06559682 -5.015625 70.0703125 C-5.78390625 70.09480469 -6.5521875 70.11929688 -7.34375 70.14453125 C-11.17434078 70.16441321 -13.03642864 70.14706547 -16.1796875 67.796875 C-17.640625 65.6953125 -17.640625 65.6953125 -17.640625 63.6953125 C-18.630625 63.3653125 -19.620625 63.0353125 -20.640625 62.6953125 C-20.640625 62.0353125 -20.640625 61.3753125 -20.640625 60.6953125 C-22.22814137 57.71224509 -24.14042516 54.94102742 -26.015625 52.1328125 C-26.50417969 51.33939453 -26.99273437 50.54597656 -27.49609375 49.72851562 C-30.52052941 45.22093858 -30.52052941 45.22093858 -35.28613281 42.94580078 C-37.77026636 42.69651119 -40.1477045 42.59598179 -42.640625 42.6953125 C-42.62491455 43.44216309 -42.6092041 44.18901367 -42.59301758 44.95849609 C-42.53081423 48.32902511 -42.4916808 51.69943362 -42.453125 55.0703125 C-42.42798828 56.2459375 -42.40285156 57.4215625 -42.37695312 58.6328125 C-42.36728516 59.75429688 -42.35761719 60.87578125 -42.34765625 62.03125 C-42.3319458 63.06813965 -42.31623535 64.1050293 -42.30004883 65.17333984 C-42.41243896 66.00559082 -42.5248291 66.8378418 -42.640625 67.6953125 C-46.25526059 70.10506956 -48.9628176 70.02770682 -53.140625 70.0078125 C-53.81738281 70.02392578 -54.49414062 70.04003906 -55.19140625 70.05664062 C-60.07690206 70.06145867 -60.07690206 70.06145867 -62.33117676 68.59727478 C-64.30196039 65.73472854 -64.03717571 63.34996476 -64.06054688 59.90063477 C-64.06901642 59.21411835 -64.07748596 58.52760193 -64.08621216 57.82028198 C-64.109614 55.55057253 -64.11060363 53.28153972 -64.109375 51.01171875 C-64.1164748 49.43374866 -64.12417353 47.85578115 -64.13244629 46.27781677 C-64.14589844 42.96988754 -64.14745671 39.66219699 -64.14160156 36.35424805 C-64.13570517 32.11576069 -64.16628952 27.87841871 -64.20671844 23.64015293 C-64.23257293 20.38101536 -64.23547496 17.12215438 -64.23182678 13.86292839 C-64.23352023 12.30040547 -64.24318448 10.73787007 -64.26097107 9.17544746 C-64.28311856 6.98931459 -64.27348452 4.80550991 -64.25585938 2.61938477 C-64.25791382 1.37600845 -64.25996826 0.13263214 -64.26208496 -1.14842224 C-63.640625 -4.3046875 -63.640625 -4.3046875 -61.24601746 -6.70233154 C-58.54151738 -8.36564019 -57.10377526 -8.83971196 -53.97265625 -8.94921875 C-52.64609009 -9.00589722 -52.64609009 -9.00589722 -51.29272461 -9.0637207 C-49.8871228 -9.09018677 -49.8871228 -9.09018677 -48.453125 -9.1171875 C-47.47931885 -9.14578857 -46.5055127 -9.17438965 -45.50219727 -9.20385742 C-10.17585698 -10.02473039 -10.17585698 -10.02473039 0 0 Z M-42.640625 7.6953125 C-42.66751949 10.65370605 -42.68741241 13.61185677 -42.703125 16.5703125 C-42.71150391 17.41207031 -42.71988281 18.25382812 -42.72851562 19.12109375 C-42.73173828 19.92675781 -42.73496094 20.73242188 -42.73828125 21.5625 C-42.74351807 22.30612793 -42.74875488 23.04975586 -42.75415039 23.81591797 C-42.75849136 25.78663818 -42.75849136 25.78663818 -41.640625 27.6953125 C-30.25674753 28.20348475 -30.25674753 28.20348475 -19.640625 24.6953125 C-17.19541385 21.02749578 -16.91824741 17.96078017 -17.640625 13.6953125 C-19.51077594 11.26411627 -20.92200845 10.05462077 -23.640625 8.6953125 C-25.53147804 8.46290112 -27.4289663 8.2829342 -29.328125 8.1328125 C-30.34261719 8.04902344 -31.35710937 7.96523438 -32.40234375 7.87890625 C-35.8218488 7.68503805 -39.21636367 7.66516177 -42.640625 7.6953125 Z " fill="#020202" transform="translate(499.640625,434.3046875)"/>
<path d="M0 0 C1.77249139 2.21116482 1.77552089 3.38508299 1.78283691 6.19622803 C1.792948 7.09436218 1.80305908 7.99249634 1.81347656 8.91784668 C1.81045532 9.88659729 1.80743408 10.8553479 1.80432129 11.85345459 C1.81515747 12.8536261 1.82599365 13.85379761 1.8371582 14.88427734 C1.87147851 18.08761012 1.88701813 21.29058701 1.89807129 24.49407959 C1.91267107 28.69754557 1.94645567 32.90022048 1.99182129 37.10345459 C1.98880005 38.06410828 1.98577881 39.02476196 1.98266602 40.01452637 C2.05841079 46.83713916 3.01869639 51.65089223 7.27307129 57.18157959 C9.84889345 59.07556647 11.27089295 59.09154385 14.39807129 58.74407959 C14.39807129 59.40407959 14.39807129 60.06407959 14.39807129 60.74407959 C16.65032195 60.51524129 18.89991946 60.26018736 21.14807129 59.99407959 C22.40104004 59.85486084 23.65400879 59.71564209 24.94494629 59.57220459 C28.70278265 58.67100402 30.09381312 57.79314848 32.39807129 54.74407959 C32.39807129 54.08407959 32.39807129 53.42407959 32.39807129 52.74407959 C33.05807129 52.74407959 33.71807129 52.74407959 34.39807129 52.74407959 C34.40171692 52.14130692 34.40536255 51.53853424 34.40911865 50.91749573 C34.45095521 44.63916581 34.52030897 38.36156616 34.60559082 32.0836792 C34.63380242 29.74130561 34.65501597 27.39883678 34.66906738 25.05633545 C34.69049353 21.6874312 34.73714444 18.31967222 34.78869629 14.95111084 C34.78992493 13.90510208 34.79115356 12.85909332 34.79241943 11.78138733 C34.88279342 7.28694303 34.94023432 4.51166305 37.2767334 0.59442139 C41.11384248 -2.75250573 45.49096164 -2.51200371 50.39807129 -2.25592041 C53.15931645 -1.5764517 54.90650446 -0.71836181 57.39807129 0.74407959 C58.59546742 3.13887185 58.53743965 4.65236044 58.5592041 7.32635498 C58.56881165 8.27817154 58.57841919 9.2299881 58.58831787 10.21064758 C58.59256775 11.24390671 58.59681763 12.27716583 58.60119629 13.34173584 C58.60689636 14.40516708 58.61259644 15.46859833 58.61846924 16.56425476 C58.62793135 18.82137047 58.63445801 21.07850006 58.63830566 23.33563232 C58.64796347 26.76825629 58.678956 30.20026935 58.71057129 33.63275146 C58.71710614 35.82740937 58.72235472 38.02207156 58.72619629 40.21673584 C58.73854309 41.23582535 58.75088989 42.25491486 58.76361084 43.30488586 C58.73081975 53.94587086 56.01454794 62.12760294 48.39807129 69.74407959 C37.26486768 78.44959996 24.11587765 80.08983385 10.39807129 78.74407959 C0.78471053 77.10610331 -8.61032525 73.79832132 -14.99645996 66.05267334 C-19.98658791 57.99744807 -21.05591408 49.55142921 -21.00036621 40.28704834 C-21.00323639 39.22166336 -21.00610657 38.15627838 -21.00906372 37.05860901 C-21.01109375 34.82233138 -21.00563873 32.58603556 -20.99304199 30.34979248 C-20.97689383 26.92418069 -20.9929682 23.4997345 -21.01208496 20.07415771 C-21.0101039 17.89511866 -21.00626306 15.71608032 -21.00036621 13.53704834 C-21.0064389 12.51411179 -21.0125116 11.49117523 -21.01876831 10.4372406 C-21.00931183 9.4855751 -20.99985535 8.53390961 -20.9901123 7.55340576 C-20.98772552 6.71895432 -20.98533875 5.88450287 -20.98287964 5.02476501 C-20.50843288 2.18433671 -19.57995588 0.81579365 -17.60192871 -1.25592041 C-12.50136777 -2.58206626 -4.45819985 -3.49525178 0 0 Z " fill="#010101" transform="translate(228.6019287109375,327.25592041015625)"/>
<path d="M0 0 C0.85078125 -0.03738281 1.7015625 -0.07476562 2.578125 -0.11328125 C3.40570313 -0.12488281 4.23328125 -0.13648438 5.0859375 -0.1484375 C5.83665527 -0.16825684 6.58737305 -0.18807617 7.36083984 -0.20849609 C10.85042781 0.69080467 12.33841412 2.65173409 14.625 5.375 C16.23071289 8.37011719 16.23071289 8.37011719 17.59765625 11.671875 C18.35852539 13.48171875 18.35852539 13.48171875 19.13476562 15.328125 C19.65273739 16.59358895 20.17031324 17.85921502 20.6875 19.125 C21.20783093 20.37548058 21.729307 21.6254853 22.25195312 22.875 C23.25789144 25.28412615 24.26068536 27.69456816 25.26000977 30.10644531 C27.6703406 35.8781336 30.14362128 41.59024035 33.0625 47.125 C35.59502283 52.11188138 37.57276133 57.25005505 39.51171875 62.4921875 C40.53767538 65.29978573 40.53767538 65.29978573 41.75 67.56640625 C43.05870918 70.27146139 42.93920701 72.42145409 42.625 75.375 C41.60546875 77.03515625 41.60546875 77.03515625 39.625 78.375 C36.86381175 78.67334873 34.37951984 78.79411153 31.625 78.75 C30.90054688 78.76160156 30.17609375 78.77320313 29.4296875 78.78515625 C24.16995584 78.75604334 24.16995584 78.75604334 21.625 76.9765625 C20.625 75.375 20.625 75.375 20.625 73.375 C19.965 73.045 19.305 72.715 18.625 72.375 C17.635 67.425 17.635 67.425 16.625 62.375 C5.735 62.375 -5.155 62.375 -16.375 62.375 C-19.21583629 68.04859519 -19.21583629 68.04859519 -22 73.75 C-23.375 76.375 -23.375 76.375 -25.375 78.375 C-28.23662022 78.65382453 -30.94870361 78.79121662 -33.8125 78.8125 C-34.58916016 78.84537109 -35.36582031 78.87824219 -36.16601562 78.91210938 C-38.43359375 78.93359375 -38.43359375 78.93359375 -42.375 78.375 C-44.4921875 76.109375 -44.4921875 76.109375 -45.375 73.375 C-45.07421875 71.33203125 -45.07421875 71.33203125 -44.0625 69.1875 C-43.670625 68.31996094 -43.27875 67.45242188 -42.875 66.55859375 C-42.38 65.50800781 -41.885 64.45742188 -41.375 63.375 C-40.76724421 62.01331501 -40.16335115 60.64990202 -39.5625 59.28515625 C-38.20260031 56.19730441 -36.83253028 53.1143448 -35.453125 50.03515625 C-33.54357045 45.76513109 -31.67450483 41.47841372 -29.8125 37.1875 C-27.2250679 31.23130085 -24.50863306 25.3451425 -21.72509766 19.47827148 C-20.21876047 16.27827389 -18.84520124 13.091689 -17.6875 9.75 C-16.34562752 6.29947076 -14.94535521 4.02567881 -12.375 1.375 C-8.23845828 -0.00384724 -4.33416089 0.07158524 0 0 Z M-0.375 22.375 C-4.44778375 29.92744366 -7.39565104 37.01774884 -9.375 45.375 C-3.105 45.375 3.165 45.375 9.625 45.375 C8.965 44.385 8.305 43.395 7.625 42.375 C7.295 42.705 6.965 43.035 6.625 43.375 C6.686875 42.54742187 6.74875 41.71984375 6.8125 40.8671875 C6.58249114 36.58327251 5.30382784 33.40214039 3.625 29.5 C3.33882812 28.81164062 3.05265625 28.12328125 2.7578125 27.4140625 C2.05629447 25.73041922 1.34194244 24.0521332 0.625 22.375 C0.295 22.375 -0.035 22.375 -0.375 22.375 Z " fill="#010101" transform="translate(158.375,425.625)"/>
<path d="M0 0 C4.84236919 4.44222944 4.84236919 4.44222944 5.8125 7.875 C4.55598579 12.70774698 1.14587723 15.37355422 -3 18 C-5.49609375 18.90625 -5.49609375 18.90625 -8 19 C-10.2109375 17.63671875 -10.2109375 17.63671875 -12.375 15.6875 C-18.73881606 10.41582399 -24.89814463 9.27174334 -33 10 C-35.94429776 10.57218132 -35.94429776 10.57218132 -38 12 C-39.16666667 13.83333333 -39.16666667 13.83333333 -39 16 C-37.56430105 18.7118758 -36.34253492 19.81971846 -33.625 21.25 C-30.94350227 22.01614221 -28.77277668 22.15844438 -26 22 C-26 22.66 -26 23.32 -26 24 C-24.35 23.67 -22.7 23.34 -21 23 C-21 23.66 -21 24.32 -21 25 C-20.39414063 25.08636719 -19.78828125 25.17273438 -19.1640625 25.26171875 C-10.04054168 26.79166301 -1.89083336 29.69468688 3.8828125 37.24609375 C6.90329066 41.98803323 7.55338551 46.46614489 7 52 C4.86437534 60.04375993 1.42907014 64.83451861 -5.72094727 69.00341797 C-10.58739883 71.63674554 -14.94858648 72.85372697 -20.4375 73.375 C-21.21246826 73.45097412 -21.98743652 73.52694824 -22.78588867 73.60522461 C-36.54261194 74.72176482 -48.54489466 73.22112315 -60 65 C-62.05664839 63.06952635 -63.44149693 61.36661578 -65 59 C-63.85608011 54.13834045 -61.01854995 51.91973877 -57.0859375 49.1796875 C-54.08271805 47.48123755 -52.36520009 47.19527824 -49 48 C-47.53829785 49.20184399 -46.08020523 50.41059808 -44.68359375 51.6875 C-39.47046939 55.75155982 -32.79242678 56.48517763 -26.375 56.3046875 C-22.82702455 55.8495196 -20.16113636 54.64928853 -17 53 C-17 50.69 -17 48.38 -17 46 C-22.20699754 43.61748786 -27.33953601 41.9949611 -32.875 40.5625 C-39.19145733 38.86726254 -45.19029202 37.06623477 -51 34 C-51.928125 33.54625 -52.85625 33.0925 -53.8125 32.625 C-57.53496723 29.85973863 -59.54986414 26.35040758 -61 22 C-61.55088666 15.44232997 -61.65942892 8.71194993 -58 3 C-54.9375 0.625 -54.9375 0.625 -52 -1 C-51.34 -1.66 -50.68 -2.32 -50 -3 C-48.30078125 -3.81640625 -48.30078125 -3.81640625 -46.3125 -4.5625 C-45.66925781 -4.81128906 -45.02601563 -5.06007813 -44.36328125 -5.31640625 C-29.86343594 -9.51057638 -12.14434993 -9.585693 0 0 Z " fill="#020202" transform="translate(270,432)"/>
<path d="M0 0 C1.02456299 -0.01583633 2.04912598 -0.03167267 3.10473633 -0.04798889 C4.20068115 -0.04302902 5.29662598 -0.03806915 6.42578125 -0.03295898 C7.56104248 -0.03915756 8.69630371 -0.04535614 9.8659668 -0.05174255 C12.26317488 -0.05883787 14.66043226 -0.05567184 17.05761719 -0.04296875 C20.72553106 -0.02910094 24.39089518 -0.06318492 28.05859375 -0.10131836 C30.38932354 -0.10226954 32.72005653 -0.1004108 35.05078125 -0.09545898 C36.69469849 -0.1153463 36.69469849 -0.1153463 38.37182617 -0.13563538 C45.94218507 -0.04302989 45.94218507 -0.04302989 49.9375 2.85009766 C52.29238077 6.35911264 52.34168978 8.38501362 51.73828125 12.53344727 C49.97812994 15.71848296 49.23937209 16.36641699 45.73828125 17.53344727 C42.83666533 17.79590499 39.95840049 18.00517342 37.05078125 18.15844727 C36.21313232 18.20348389 35.3754834 18.24852051 34.51245117 18.29492188 C26.52442123 18.65756863 18.69874634 18.24714414 10.73828125 17.53344727 C10.73828125 21.82344727 10.73828125 26.11344727 10.73828125 30.53344727 C11.72223877 30.5125 12.70619629 30.49155273 13.7199707 30.4699707 C17.37070156 30.39756885 21.021369 30.35164777 24.67260742 30.3137207 C26.2527941 30.2936054 27.83290634 30.26630923 29.4128418 30.23168945 C31.68426873 30.18316384 33.95471183 30.16047918 36.2265625 30.14282227 C37.28608879 30.11185455 37.28608879 30.11185455 38.36701965 30.08026123 C41.63494378 30.07876633 43.28354631 30.08971398 45.67578125 32.42407227 C47.37070924 35.78900283 47.42680894 38.79577949 47.73828125 42.53344727 C47.07828125 42.53344727 46.41828125 42.53344727 45.73828125 42.53344727 C45.40828125 43.52344727 45.07828125 44.51344727 44.73828125 45.53344727 C41.78017649 47.01249964 38.78356575 46.65535629 35.54296875 46.63110352 C34.83552521 46.62968857 34.12808167 46.62827362 33.39920044 46.6268158 C31.13718456 46.62121327 28.87526727 46.60866044 26.61328125 46.59594727 C25.0807306 46.59093259 23.54817839 46.58636962 22.015625 46.58227539 C18.25644178 46.57209342 14.49747201 46.5525187 10.73828125 46.53344727 C10.73828125 51.81344727 10.73828125 57.09344727 10.73828125 62.53344727 C13.98671875 62.25500977 13.98671875 62.25500977 17.30078125 61.97094727 C24.55819424 61.46882286 31.78198112 61.49766964 39.05078125 61.72094727 C40.05890869 61.73891357 41.06703613 61.75687988 42.10571289 61.77539062 C43.05309326 61.812854 44.00047363 61.85031738 44.9765625 61.88891602 C45.82259033 61.91622803 46.66861816 61.94354004 47.5402832 61.97167969 C49.73828125 62.53344727 49.73828125 62.53344727 51.51098633 64.44873047 C52.83964079 66.70561936 53.14367158 67.9401388 53.11328125 70.53344727 C53.12488281 71.52344727 53.12488281 71.52344727 53.13671875 72.53344727 C52.59591076 75.2480913 51.64927765 76.53121306 49.73828125 78.53344727 C47.23376465 79.04138184 47.23376465 79.04138184 44.21289062 79.05102539 C42.51598083 79.06993835 42.51598083 79.06993835 40.78479004 79.0892334 C39.56287964 79.08113647 38.34096924 79.07303955 37.08203125 79.06469727 C35.82821655 79.06852417 34.57440186 79.07235107 33.28259277 79.07629395 C30.62907887 79.07901855 27.97703468 79.07362792 25.32373047 79.05493164 C21.92367403 79.03214047 18.52488041 79.04526362 15.1248703 79.0692215 C11.88137866 79.08715523 8.63803937 79.07459713 5.39453125 79.06469727 C4.17262085 79.07279419 2.95071045 79.08089111 1.69177246 79.0892334 C0.56049927 79.07662476 -0.57077393 79.06401611 -1.73632812 79.05102539 C-2.73321655 79.04784302 -3.73010498 79.04466064 -4.75720215 79.04138184 C-7.26171875 78.53344727 -7.26171875 78.53344727 -9.08081055 76.92712402 C-10.65562419 73.735009 -10.65713572 71.27552859 -10.68164062 67.71704102 C-10.69434494 66.7016777 -10.69434494 66.7016777 -10.70730591 65.665802 C-10.7306563 63.43399134 -10.73169875 61.2028707 -10.73046875 58.97094727 C-10.73757067 57.41682663 -10.74526971 55.86270861 -10.75354004 54.30859375 C-10.76697963 51.05371812 -10.76855565 47.79908505 -10.76269531 44.54418945 C-10.75679415 40.37410528 -10.78740871 36.20518335 -10.82781219 32.0353241 C-10.85366479 28.82679988 -10.85656901 25.61855664 -10.85292053 22.40994263 C-10.85461355 20.872539 -10.86427373 19.33512266 -10.88206482 17.79782104 C-10.90421329 15.64770696 -10.89457878 13.49995976 -10.87695312 11.34985352 C-10.87900757 10.1272583 -10.88106201 8.90466309 -10.88317871 7.64501953 C-10.26171875 4.53344727 -10.26171875 4.53344727 -8.05212402 2.14076233 C-5.04540848 0.40884932 -3.43383411 0.02371337 0 0 Z " fill="#010101" transform="translate(373.26171875,425.466552734375)"/>
<path d="M0 0 C1.1446875 -0.01260864 2.289375 -0.02521729 3.46875 -0.03820801 C4.6959375 -0.03011108 5.923125 -0.02201416 7.1875 -0.01367188 C8.4559375 -0.01749878 9.724375 -0.02132568 11.03125 -0.02526855 C13.71149486 -0.02798903 16.39027705 -0.02263873 19.0703125 -0.00390625 C22.49701508 0.01888417 25.92246444 0.00575499 29.34912109 -0.01819611 C32.62862502 -0.03616609 35.90797969 -0.02356626 39.1875 -0.01367188 C41.02828125 -0.02581726 41.02828125 -0.02581726 42.90625 -0.03820801 C44.0509375 -0.02559937 45.195625 -0.01299072 46.375 0 C47.37917969 0.00318237 48.38335937 0.00636475 49.41796875 0.00964355 C52.93778233 0.65518059 54.63082545 2.06327877 57.1875 4.51757812 C58.40293927 7.52390801 58.57108246 10.30362206 58.1875 13.51757812 C56.1875 16.01757812 56.1875 16.01757812 53.1875 18.51757812 C52.05272821 19.88864622 50.95114828 21.28753109 49.875 22.70507812 C47.4590476 25.86759092 45.00763003 28.98976228 42.5 32.08007812 C38.43230203 37.14491606 34.5398116 42.33357427 30.66333008 47.54516602 C26.90640565 52.59007026 23.06436479 57.56432334 19.1875 62.51757812 C20.73860474 62.48615723 20.73860474 62.48615723 22.32104492 62.45410156 C26.16937328 62.38152524 30.01764154 62.33571495 33.86645508 62.29785156 C35.52997013 62.27777605 37.19341496 62.25050936 38.85668945 62.21582031 C41.2522924 62.16712046 43.64695992 62.14456957 46.04296875 62.12695312 C47.15263252 62.09598541 47.15263252 62.09598541 48.28471375 62.06439209 C51.96314924 62.06280525 54.01696894 62.41028351 57.15942383 64.38745117 C59.1875 66.51757812 59.1875 66.51757812 59.78125 68.99023438 C59.7503125 69.84488281 59.719375 70.69953125 59.6875 71.58007812 C59.6771875 72.43730469 59.666875 73.29453125 59.65625 74.17773438 C59.08256792 77.0413641 58.52001719 77.7837729 56.1875 79.51757812 C53.42396545 79.90525818 53.42396545 79.90525818 50.03540039 79.92163086 C48.76720963 79.93431503 47.49901886 79.94699921 46.19239807 79.96006775 C44.80664914 79.95801623 43.42090133 79.95502814 42.03515625 79.95117188 C40.61412811 79.95573279 39.19310218 79.96103809 37.77207947 79.96705627 C34.79368124 79.97599231 31.81555106 79.97355918 28.8371582 79.96362305 C25.02251634 79.95213653 21.20880061 79.97233605 17.39428043 80.00154018 C14.45940789 80.01989836 11.5247574 80.01961053 8.58984184 80.01390266 C7.18363585 80.01374938 5.77741488 80.01979993 4.3712635 80.03219414 C2.40389208 80.04709074 0.43636841 80.03380392 -1.53100586 80.01928711 C-2.65002792 80.01912094 -3.76904999 80.01895477 -4.92198181 80.01878357 C-8.48378441 79.40117983 -9.671772 78.38886043 -11.8125 75.51757812 C-12.26902447 71.25668304 -12.14823034 68.16715678 -9.8125 64.51757812 C-9.1525 64.51757812 -8.4925 64.51757812 -7.8125 64.51757812 C-7.42578125 63.69 -7.42578125 63.69 -7.03125 62.84570312 C-5.63286875 60.17443638 -4.02486695 57.74905904 -2.3125 55.26757812 C-1.7040625 54.37554687 -1.095625 53.48351562 -0.46875 52.56445312 C0.0778125 51.88898438 0.624375 51.21351563 1.1875 50.51757812 C1.8475 50.51757812 2.5075 50.51757812 3.1875 50.51757812 C3.42339844 49.80730469 3.65929687 49.09703125 3.90234375 48.36523438 C5.41425528 45.01513254 7.33933238 42.72791177 9.75 39.95507812 C15.61732062 33.10663983 21.18152623 26.02653878 26.1875 18.51757812 C25.17324951 18.50299561 24.15899902 18.48841309 23.11401367 18.47338867 C19.35095971 18.4154156 15.58850479 18.33818354 11.82592773 18.25512695 C10.19744591 18.22187277 8.56884869 18.19384228 6.94018555 18.17114258 C4.59894639 18.13760456 2.25876514 18.08529228 -0.08203125 18.02929688 C-0.81025589 18.02290695 -1.53848053 18.01651703 -2.28877258 18.00993347 C-7.32484252 17.86344141 -7.32484252 17.86344141 -9.76635742 16.13183594 C-11.21450522 13.89726108 -11.2806303 12.22924732 -11.3125 9.58007812 C-11.3434375 8.72542969 -11.374375 7.87078125 -11.40625 6.99023438 C-10.05132495 1.34768467 -5.24629784 0.01662618 0 0 Z " fill="#010101" transform="translate(349.8125,324.482421875)"/>
<path d="M0 0 C1.22477051 -0.01591187 2.44954102 -0.03182373 3.71142578 -0.04821777 C5.68344971 -0.0485199 5.68344971 -0.0485199 7.6953125 -0.04882812 C9.06624664 -0.05593444 10.43717782 -0.06363413 11.80810547 -0.07189941 C14.67619098 -0.08532118 17.54400131 -0.08692303 20.41210938 -0.08105469 C24.08104107 -0.07515347 27.74865177 -0.10577537 31.41732788 -0.14617157 C34.24673531 -0.17206231 37.07582491 -0.174925 39.90533447 -0.17127991 C41.9133633 -0.17378822 43.92132495 -0.19847076 45.92919922 -0.22351074 C56.05125568 -0.14660655 56.05125568 -0.14660655 59.15039062 2.82592773 C61.74055973 6.84939948 61.41959319 8.70058646 60.8203125 13.41992188 C59.6081543 15.64160156 59.6081543 15.64160156 57.8203125 17.41992188 C55.46020508 17.87402344 55.46020508 17.87402344 52.71484375 17.81054688 C51.24047852 17.79121094 51.24047852 17.79121094 49.73632812 17.77148438 C48.71216797 17.73796875 47.68800781 17.70445312 46.6328125 17.66992188 C45.07916992 17.64285156 45.07916992 17.64285156 43.49414062 17.61523438 C40.93526966 17.56806625 38.37825408 17.50226245 35.8203125 17.41992188 C35.82919495 18.13988846 35.83807739 18.85985504 35.847229 19.60163879 C35.92735811 26.384755 35.98826824 33.16780053 36.02756119 39.9512682 C36.0484415 43.43882744 36.07676568 46.92599581 36.12207031 50.41333008 C36.17382312 54.42207604 36.19325386 58.4304111 36.2109375 62.43945312 C36.23158264 63.69264847 36.25222778 64.94584381 36.27349854 66.23701477 C36.27380066 67.39799179 36.27410278 68.55896881 36.27441406 69.75512695 C36.28329651 70.77882889 36.29217896 71.80253082 36.30133057 72.85725403 C35.8203125 75.41992188 35.8203125 75.41992188 34.01483154 77.24687195 C30.75448844 78.98964344 27.92621476 78.85383595 24.2578125 78.85742188 C23.58556641 78.87740234 22.91332031 78.89738281 22.22070312 78.91796875 C17.31870564 78.91310083 17.31870564 78.91310083 15.1269989 76.74432373 C13.50930183 73.86667989 13.45788382 72.02584246 13.47973633 68.73339844 C13.47996292 67.5925177 13.48018951 66.45163696 13.48042297 65.27618408 C13.49590683 64.0500238 13.51139069 62.82386353 13.52734375 61.56054688 C13.53158859 60.3010321 13.53583344 59.04151733 13.54020691 57.74383545 C13.55415129 54.40303649 13.58108325 51.06285604 13.61431885 47.722229 C13.64506411 44.31031629 13.65872171 40.89833958 13.67382812 37.48632812 C13.70691436 30.79735539 13.75712726 24.10867433 13.8203125 17.41992188 C12.88964966 17.43563232 12.88964966 17.43563232 11.94018555 17.45166016 C9.12943573 17.49323073 6.3187506 17.51925121 3.5078125 17.54492188 C2.53134766 17.56167969 1.55488281 17.5784375 0.54882812 17.59570312 C-0.85786133 17.60537109 -0.85786133 17.60537109 -2.29296875 17.61523438 C-3.15704346 17.62570801 -4.02111816 17.63618164 -4.91137695 17.64697266 C-7.1796875 17.41992188 -7.1796875 17.41992188 -10.1796875 15.41992188 C-11.08367809 12.7079501 -11.43242149 10.74144528 -11.5546875 7.91992188 C-11.60367187 7.14648438 -11.65265625 6.37304688 -11.703125 5.57617188 C-11.1796875 3.41992188 -11.1796875 3.41992188 -9.03320312 1.81140137 C-5.7652419 0.21782291 -3.62207197 0.02836105 0 0 Z " fill="#010101" transform="translate(293.1796875,425.580078125)"/>
<path d="M0 0 C2.44176516 3.66264774 2.25850402 5.44330357 2.2746582 9.81054688 C2.2823246 10.84273094 2.2823246 10.84273094 2.29014587 11.89576721 C2.30404525 14.17018328 2.3030851 16.44429651 2.30078125 18.71875 C2.3046676 20.2991141 2.30900214 21.87947717 2.31376648 23.45983887 C2.32122912 26.77192573 2.32093683 30.08390599 2.31567383 33.39599609 C2.30987475 37.64326354 2.32682024 41.89009554 2.3500185 46.13729095 C2.36473877 49.40064043 2.36562997 52.66388456 2.36250877 55.92726135 C2.36302271 57.49338138 2.36827393 59.0595072 2.37832069 60.62559509 C2.39063714 62.81383722 2.38392356 65.00122501 2.37231445 67.18945312 C2.37294388 68.43505005 2.3735733 69.68064697 2.3742218 70.96398926 C2 74 2 74 0.61637878 75.88928223 C-3.18248447 78.49972538 -8.71415321 78.34204277 -13.140625 77.6796875 C-16.0733931 76.90336653 -17.83702086 76.16297914 -20 74 C-20.26069641 71.04627991 -20.26069641 71.04627991 -20.2746582 67.21118164 C-20.27976913 66.51345139 -20.28488007 65.81572113 -20.29014587 65.09684753 C-20.30407492 62.78453046 -20.30308263 60.47251035 -20.30078125 58.16015625 C-20.30466648 56.55594267 -20.30900079 54.95173012 -20.31376648 53.34751892 C-20.32123589 49.98237781 -20.32093232 46.61734159 -20.31567383 43.25219727 C-20.30987934 38.93652234 -20.32680591 34.62127659 -20.3500185 30.30567265 C-20.36474004 26.99170922 -20.3656297 23.67784951 -20.36250877 20.36385918 C-20.36302282 18.7726195 -20.36827621 17.18137415 -20.37832069 15.59016609 C-20.39063713 13.36589692 -20.38392305 11.14246829 -20.37231445 8.91821289 C-20.37294388 7.65183487 -20.3735733 6.38545685 -20.3742218 5.08070374 C-20 2 -20 2 -18.61735535 0.11058044 C-13.42075328 -3.45774153 -5.3421166 -2.90000615 0 0 Z " fill="#010001" transform="translate(323,327)"/>
<path d="M0 0 C8.91 0 17.82 0 27 0 C27.33 0.66 27.66 1.32 28 2 C24.31985417 2.8901225 21.24323542 3.01751398 17.48046875 2.66015625 C15.9480957 2.5199707 15.9480957 2.5199707 14.38476562 2.37695312 C13.32966797 2.27318359 12.27457031 2.16941406 11.1875 2.0625 C9.57584961 1.91264648 9.57584961 1.91264648 7.93164062 1.75976562 C5.28708456 1.51294039 2.64333988 1.25947479 0 1 C0 0.67 0 0.34 0 0 Z " fill="#191B1A" transform="translate(415,259)"/>
<path d="M0 0 C0.66 0.66 1.32 1.32 2 2 C1.01 1.67 0.02 1.34 -1 1 C-0.67 0.67 -0.34 0.34 0 0 Z " fill="#2C2C2C" transform="translate(504,464)"/>
<path d="M0 0 C0 3 0 3 0 3 Z " fill="#1D1E1E" transform="translate(24,87)"/>
<path d="" fill="#1B1B1A" transform="translate(0,0)"/>
<path d="" fill="#252726" transform="translate(0,0)"/>
<path d="M0 0 C0.66 0.66 1.32 1.32 2 2 C1.34 2 0.68 2 0 2 C0 1.34 0 0.68 0 0 Z " fill="#1B1D1B" transform="translate(404,204)"/>
<path d="M0 0 C0.66 0 1.32 0 2 0 C1.67 0.66 1.34 1.32 1 2 C0.67 1.34 0.34 0.68 0 0 Z " fill="#2C2C2C" transform="translate(462,40)"/>
<path d="" fill="#262825" transform="translate(0,0)"/>
<path d="" fill="#2E2E2E" transform="translate(0,0)"/>
<path d="M0 0 C2 1 2 1 2 1 Z " fill="#242523" transform="translate(479,499)"/>
<path d="" fill="#2D2C2D" transform="translate(0,0)"/>
<path d="" fill="#181817" transform="translate(0,0)"/>
<path d="M0 0 C2 1 2 1 2 1 Z " fill="#151715" transform="translate(385,454)"/>
<path d="" fill="#1A1A1A" transform="translate(0,0)"/>
<path d="M0 0 C2 1 2 1 2 1 Z " fill="#1A1B1C" transform="translate(140,386)"/>
<path d="M0 0 C2 1 2 1 2 1 Z " fill="#161615" transform="translate(205,368)"/>
<path d="" fill="#2E302F" transform="translate(0,0)"/>
<path d="" fill="#3F3E3F" transform="translate(0,0)"/>
<path d="M0 0 C2 1 2 1 2 1 Z " fill="#201C1D" transform="translate(146,320)"/>
<path d="" fill="#3B3C3E" transform="translate(0,0)"/>
<path d="M0 0 C2 1 2 1 2 1 Z " fill="#212122" transform="translate(23,236)"/>
<path d="" fill="#1C1D1A" transform="translate(0,0)"/>
<path d="" fill="#232223" transform="translate(0,0)"/>
<path d="" fill="#1C1D1D" transform="translate(0,0)"/>
<path d="" fill="#2A2929" transform="translate(0,0)"/>
<path d="" fill="#363635" transform="translate(0,0)"/>
<path d="" fill="#222121" transform="translate(0,0)"/>
<path d="" fill="#2C2E2E" transform="translate(0,0)"/>
<path d="" fill="#282726" transform="translate(0,0)"/>
<path d="" fill="#1E1E1E" transform="translate(0,0)"/>
<path d="" fill="#1B1918" transform="translate(0,0)"/>
<path d="" fill="#191918" transform="translate(0,0)"/>
<path d="" fill="#151818" transform="translate(0,0)"/>
<path d="" fill="#171717" transform="translate(0,0)"/>
<path d="" fill="#141514" transform="translate(0,0)"/>
<path d="" fill="#171716" transform="translate(0,0)"/>
<path d="" fill="#161716" transform="translate(0,0)"/>
<path d="" fill="#151813" transform="translate(0,0)"/>
<path d="" fill="#171616" transform="translate(0,0)"/>
<path d="" fill="#191716" transform="translate(0,0)"/>
<path d="" fill="#151715" transform="translate(0,0)"/>
<path d="" fill="#282728" transform="translate(0,0)"/>
<path d="" fill="#161817" transform="translate(0,0)"/>
<path d="" fill="#141415" transform="translate(0,0)"/>
<path d="" fill="#161613" transform="translate(0,0)"/>
<path d="" fill="#171816" transform="translate(0,0)"/>
<path d="" fill="#141414" transform="translate(0,0)"/>
<path d="" fill="#181817" transform="translate(0,0)"/>
<path d="" fill="#171613" transform="translate(0,0)"/>
<path d="" fill="#161614" transform="translate(0,0)"/>
<path d="" fill="#1A1A19" transform="translate(0,0)"/>
<path d="" fill="#161615" transform="translate(0,0)"/>
<path d="" fill="#171616" transform="translate(0,0)"/>
<path d="" fill="#30302F" transform="translate(0,0)"/>
<path d="" fill="#323130" transform="translate(0,0)"/>
<path d="" fill="#1F1F1E" transform="translate(0,0)"/>
<path d="" fill="#222322" transform="translate(0,0)"/>
<path d="" fill="#1F1E1F" transform="translate(0,0)"/>
<path d="" fill="#272626" transform="translate(0,0)"/>
<path d="" fill="#1B1F1D" transform="translate(0,0)"/>
<path d="" fill="#1E201E" transform="translate(0,0)"/>
<path d="" fill="#3B3E3D" transform="translate(0,0)"/>
<path d="" fill="#292B29" transform="translate(0,0)"/>
<path d="" fill="#3B3B3C" transform="translate(0,0)"/>
<path d="" fill="#181717" transform="translate(0,0)"/>
<path d="" fill="#2B2829" transform="translate(0,0)"/>
<path d="" fill="#2D2E2D" transform="translate(0,0)"/>
<path d="" fill="#171717" transform="translate(0,0)"/>
<path d="" fill="#4E4F4F" transform="translate(0,0)"/>
<path d="" fill="#2E2F2F" transform="translate(0,0)"/>
<path d="" fill="#2E302F" transform="translate(0,0)"/>
<path d="" fill="#3D3D3E" transform="translate(0,0)"/>
<path d="" fill="#4E4F4F" transform="translate(0,0)"/>
<path d="" fill="#3F3E3E" transform="translate(0,0)"/>
<path d="" fill="#181816" transform="translate(0,0)"/>
<path d="" fill="#191915" transform="translate(0,0)"/>
<path d="" fill="#171917" transform="translate(0,0)"/>
<path d="" fill="#181618" transform="translate(0,0)"/>
<path d="" fill="#1A1817" transform="translate(0,0)"/>
<path d="" fill="#161515" transform="translate(0,0)"/>
<path d="" fill="#40403F" transform="translate(0,0)"/>
<path d="" fill="#1F1F1E" transform="translate(0,0)"/>
<path d="" fill="#1E1D1E" transform="translate(0,0)"/>
<path d="" fill="#2F312E" transform="translate(0,0)"/>
<path d="" fill="#30302F" transform="translate(0,0)"/>
<path d="" fill="#201F1F" transform="translate(0,0)"/>
<path d="" fill="#1E1F1E" transform="translate(0,0)"/>
<path d="" fill="#4C4D4D" transform="translate(0,0)"/>
<path d="" fill="#2F3130" transform="translate(0,0)"/>
<path d="" fill="#3F3D3F" transform="translate(0,0)"/>
<path d="" fill="#2D3131" transform="translate(0,0)"/>
<path d="" fill="#2F3331" transform="translate(0,0)"/>
<path d="" fill="#3F3F40" transform="translate(0,0)"/>
<path d="" fill="#2F3131" transform="translate(0,0)"/>
<path d="" fill="#1F1D1D" transform="translate(0,0)"/>
<path d="" fill="#292C2A" transform="translate(0,0)"/>
<path d="" fill="#484948" transform="translate(0,0)"/>
<path d="" fill="#242222" transform="translate(0,0)"/>
<path d="" fill="#21211E" transform="translate(0,0)"/>
<path d="" fill="#303233" transform="translate(0,0)"/>
<path d="" fill="#212120" transform="translate(0,0)"/>
<path d="" fill="#1D1E1E" transform="translate(0,0)"/>
<path d="" fill="#454545" transform="translate(0,0)"/>
<path d="" fill="#242623" transform="translate(0,0)"/>
<path d="" fill="#1B1A1A" transform="translate(0,0)"/>
<path d="" fill="#1A1E1C" transform="translate(0,0)"/>
<path d="" fill="#222320" transform="translate(0,0)"/>
<path d="" fill="#212120" transform="translate(0,0)"/>
<path d="" fill="#1D1F1E" transform="translate(0,0)"/>
<path d="" fill="#242324" transform="translate(0,0)"/>
<path d="" fill="#21211F" transform="translate(0,0)"/>
<path d="" fill="#1C1E19" transform="translate(0,0)"/>
<path d="" fill="#1E1F1D" transform="translate(0,0)"/>
<path d="" fill="#1E1E1E" transform="translate(0,0)"/>
<path d="" fill="#212223" transform="translate(0,0)"/>
<path d="" fill="#1B1E1D" transform="translate(0,0)"/>
<path d="" fill="#222023" transform="translate(0,0)"/>
<path d="" fill="#212122" transform="translate(0,0)"/>
<path d="" fill="#202323" transform="translate(0,0)"/>
<path d="" fill="#222123" transform="translate(0,0)"/>
<path d="" fill="#1D1D1B" transform="translate(0,0)"/>
<path d="" fill="#1B1D1D" transform="translate(0,0)"/>
<path d="" fill="#222123" transform="translate(0,0)"/>
<path d="" fill="#1D1D1E" transform="translate(0,0)"/>
<path d="" fill="#1D1E1B" transform="translate(0,0)"/>
<path d="" fill="#1D1E1E" transform="translate(0,0)"/>
<path d="" fill="#1E1F1D" transform="translate(0,0)"/>
<path d="" fill="#212224" transform="translate(0,0)"/>
<path d="" fill="#222324" transform="translate(0,0)"/>
<path d="" fill="#1E1F1F" transform="translate(0,0)"/>
<path d="" fill="#232221" transform="translate(0,0)"/>
<path d="" fill="#242324" transform="translate(0,0)"/>
<path d="" fill="#202022" transform="translate(0,0)"/>
<path d="" fill="#444544" transform="translate(0,0)"/>
<path d="" fill="#454645" transform="translate(0,0)"/>
<path d="" fill="#323132" transform="translate(0,0)"/>
<path d="" fill="#272A27" transform="translate(0,0)"/>
<path d="" fill="#2C2E2C" transform="translate(0,0)"/>
<path d="" fill="#262828" transform="translate(0,0)"/>
<path d="" fill="#212021" transform="translate(0,0)"/>
<path d="" fill="#393939" transform="translate(0,0)"/>
<path d="" fill="#211F21" transform="translate(0,0)"/>
<path d="" fill="#242322" transform="translate(0,0)"/>
<path d="" fill="#222221" transform="translate(0,0)"/>
<path d="" fill="#252624" transform="translate(0,0)"/>
</svg>
